# xmcd
#
# Track frame offsets: 
#        150
#        18779
#        35911
#        62833
#        88133
#        111417
#        132041
#        146849
#        163768
#
# Disc length: 2363 seconds
#
# Revision: 0
# Processed by: cddbd v1.5.1PL2 Copyright (c) Steve Scherf et al.
# Submitted via: ExactAudioCopy v0.95a5
#
DISCID=80093909
DTITLE=Frankfurt City Blues Band - Ten Years On The Road
DYEAR=1900
DGENRE=Blues
TTITLE0=The Band Is On The Road
TTITLE1=Rollin' and Tumblin'
TTITLE2=Stormy Monday Blues
TTITLE3=Goin Down
TTITLE4=I Don't Need No Doctor
TTITLE5=Georgia On My Mind
TTITLE6=Car Song
TTITLE7=Why I Sing The Blues
TTITLE8=Walkin' By Myself
EXTD=
EXTT0=
EXTT1=
EXTT2=
EXTT3=
EXTT4=
EXTT5=
EXTT6=
EXTT7=
EXTT8=
PLAYORDER=
